<svg xmlns="http://www.w3.org/2000/svg" width="343" height="343" fill="none" viewBox="0 0 343 343"><path fill="#101010" d="M0 0h343v343H0z"/><path fill="#fff" d="m93.348 221.081 2.845 2.168q2.845 2.17 9.838 4.511t19.918 3.704q12.943 1.413 20.007.946 7.08-.416 12.335-1.615a137 137 0 0 0 10.408-2.698q5.136-1.55 13.656-4.006t15.098-5.434 11.882-6.143q5.242-3.2 12.951-7.781 7.646-4.616 12.823-8.462t13.553-12.326q8.33-8.465 9.517-9.14a8.9 8.9 0 0 1 2.522-1.066q1.305-.325 2.711-.349 1.36-.008 2.747.364 1.34.387 2.629 1.07 1.244.7 2.343 1.724 1.083.975 1.961 2.241a15 15 0 0 1 1.392 2.654q.56 1.373.801 2.852.258 1.529.149 3.014a13.5 13.5 0 0 1-.514 2.845q-.432 1.425-1.13 2.661a10.2 10.2 0 0 1-1.74 2.197q-.98.996-4.601 2.094-3.684 1.064-5.518.563a10.6 10.6 0 0 1-3.454-1.575 12 12 0 0 1-2.86-2.665 14.4 14.4 0 0 1-2.011-3.45 13.8 13.8 0 0 1-.892-3.879 12.5 12.5 0 0 1 .298-3.943 11 11 0 0 1 1.441-3.545 9.8 9.8 0 0 1 2.44-2.821 9.5 9.5 0 0 1 3.143-1.774 10.3 10.3 0 0 1 3.608-.537q1.881.04 3.674.722a12.3 12.3 0 0 1 3.283 1.966 12.5 12.5 0 0 1 2.608 2.972 12.8 12.8 0 0 1 1.665 3.621q.562 1.985.529 4.001a13 13 0 0 1-.683 3.849 12 12 0 0 1-1.814 3.335 11.2 11.2 0 0 1-2.694 2.515 10.6 10.6 0 0 1-3.385 1.354 10.4 10.4 0 0 1-3.65.106 11.3 11.3 0 0 1-3.565-1.148 12.7 12.7 0 0 1-3.11-2.359 13.4 13.4 0 0 1-2.324-3.178 14.1 14.1 0 0 1-1.273-3.808 13 13 0 0 1-.115-3.972 13.4 13.4 0 0 1 1.023-3.739 10.8 10.8 0 0 1 2.141-3.11 10.4 10.4 0 0 1 2.981-2.11q1.641-.828-.12.095-1.824.888-.636.213a8.9 8.9 0 0 1 2.522-1.066q1.305-.325 2.711-.349 1.36-.008 2.747.364 1.34.387 2.629 1.07 1.244.7 2.343 1.724 1.083.975 1.916 2.256a13 13 0 0 1 1.42 2.589q.576 1.423.818 2.902t.149 3.014a13.5 13.5 0 0 1-.514 2.845q-.432 1.425-1.13 2.661a10.2 10.2 0 0 1-1.74 2.197q-.98.996-5.734 6.26-4.737 5.315-9.054 8.261a635 635 0 0 1-9.867 6.583q-5.578 3.703-13.407 9.437-7.827 5.736-14.011 9.138-6.201 3.353-13.53 6.805-7.345 3.401-16.331 7.183-8.923 3.818-14.949 5.274a153 153 0 0 1-12.521 2.568q-6.54 1.127-14.439 1.817-7.943.705-19.033 1.514-11.073.859-16.485-.229-5.44-1.023-11.96-3.913-6.504-2.84-11.522-6.677-5-3.788-7.555-6.443a503 503 0 0 1-3.517-3.727 14.4 14.4 0 0 1-1.738-2.482 15.4 15.4 0 0 1-1.12-2.745 13.7 13.7 0 0 1-.545-2.993q-.06-1.54.157-3.005.264-1.48.82-2.836t1.441-2.486a10.6 10.6 0 0 1 1.96-1.992 8.8 8.8 0 0 1 2.342-1.451q1.239-.525 2.64-.715a11.2 11.2 0 0 1 2.765-.033q1.427.192 2.757.695a13 13 0 0 1 2.531 1.382q1.248.864 1.203.879m2.303-101.953q5.468-2.163 12.11-1.385 6.636.755 11.506 5.237 4.845 4.49 6.402 9.912 1.532 5.43.02 11.26-1.506 5.856-5.856 10.355-4.374 4.504-10.943 5.542-5.061.778-10.52-1.076-3.235-.036-5.974-1.559a19.3 19.3 0 0 1-4.605-3.527 17.1 17.1 0 0 1-3.83-4.807 16.5 16.5 0 0 1-1.866-6.129l-.028-.264-.02-.254-.023-.3a17 17 0 0 1 .28-4.108q.009-.272.022-.548.386-7.338 4.131-11.778 3.752-4.416 9.194-6.571M204.289 91q.476 0 .946.022a30 30 0 0 1 3.102.203q6.636.754 11.506 5.236 4.847 4.49 6.403 9.912 1.532 5.429.02 11.261-1.506 5.854-5.856 10.353-4.374 4.506-10.943 5.542-5.06.78-10.522-1.075-3.234-.036-5.971-1.559a19.3 19.3 0 0 1-4.604-3.525 17.1 17.1 0 0 1-3.831-4.808 16.5 16.5 0 0 1-1.869-6.139q-.014-.127-.025-.255l-.018-.208q-.015-.173-.027-.347a17 17 0 0 1 .281-4.109l.022-.545q.385-7.338 4.13-11.778 3.752-4.416 9.196-6.573.154-.06.31-.118a20.8 20.8 0 0 1 7.75-1.49"/></svg>