<?xml version="1.0" standalone="no"?>
<!DOCTYPE svg PUBLIC "-//W3C//DTD SVG 1.1//EN" "http://www.w3.org/Graphics/SVG/1.1/DTD/svg11.dtd">
<svg version="1.1" xmlns="http://www.w3.org/2000/svg" viewBox="0 0 48.65492161289876 39.16102097170642" width="48.65492161289876" height="39.16102097170642"><!-- svg-source:excalidraw --><metadata></metadata><defs><style class="style-fonts">
      </style></defs><g stroke-linecap="round" transform="translate(10 10.147007565016793) rotate(0 14.32746080644938 9.507006703344814)"><path d="M4.75 0 C10.67 0, 16.58 0, 23.9 0 M4.75 0 C11.29 0, 17.83 0, 23.9 0 M23.9 0 C27.07 0, 28.65 1.58, 28.65 4.75 M23.9 0 C27.07 0, 28.65 1.58, 28.65 4.75 M28.65 4.75 C28.65 7.98, 28.65 11.2, 28.65 14.26 M28.65 4.75 C28.65 7.88, 28.65 11, 28.65 14.26 M28.65 14.26 C28.65 17.43, 27.07 19.01, 23.9 19.01 M28.65 14.26 C28.65 17.43, 27.07 19.01, 23.9 19.01 M23.9 19.01 C16.35 19.01, 8.79 19.01, 4.75 19.01 M23.9 19.01 C18.7 19.01, 13.5 19.01, 4.75 19.01 M4.75 19.01 C1.58 19.01, 0 17.43, 0 14.26 M4.75 19.01 C1.58 19.01, 0 17.43, 0 14.26 M0 14.26 C0 10.94, 0 7.63, 0 4.75 M0 14.26 C0 12.32, 0 10.38, 0 4.75 M0 4.75 C0 1.58, 1.58 0, 4.75 0 M0 4.75 C0 1.58, 1.58 0, 4.75 0" stroke="#fff" stroke-width="2" fill="none"></path></g><g stroke-linecap="round"><g transform="translate(10.414063221418473 11.90909873768669) rotate(0 7.046515582952452 5.4858919694493125)"><path d="M0 0 C2.35 1.83, 11.74 9.14, 14.09 10.97 M0 0 C2.35 1.83, 11.74 9.14, 14.09 10.97" stroke="#fff" stroke-width="2" fill="none"></path></g></g><mask></mask><g stroke-linecap="round"><g transform="translate(25.027743469712732 23.40515245237748) rotate(0 6.718816400414653 -6.702576226188739)"><path d="M0 0 C2.24 -2.23, 11.2 -11.17, 13.44 -13.41 M0 0 C2.24 -2.23, 11.2 -11.17, 13.44 -13.41" stroke="#fff" stroke-width="2" fill="none"></path></g></g><mask></mask></svg>