<svg width="139" height="123" viewBox="0 0 139 123" fill="none" xmlns="http://www.w3.org/2000/svg">
<path d="M40.7183 99.2953L38.7222 99.1703L40.7183 99.2953ZM25.4464 107.494C26.5504 107.531 27.4746 106.665 27.5107 105.561C27.5468 104.457 26.6811 103.533 25.5771 103.497L25.4464 107.494ZM37.5496 86.0561C38.0629 88.6569 38.9912 94.8725 38.7222 99.1703L42.7144 99.4202C43.0167 94.5906 42.0029 87.9619 41.4739 85.2815L37.5496 86.0561ZM38.7222 99.1703C38.402 104.285 35.702 109.177 32.4664 112.801L35.4503 115.465C39.0607 111.421 42.3203 105.715 42.7144 99.4202L38.7222 99.1703ZM32.4664 112.801C31.1492 114.276 29.1567 115.153 27.132 115.349C25.0634 115.549 23.3453 115.013 22.4454 114.171L19.7127 117.092C21.7186 118.969 24.7286 119.6 27.5175 119.33C30.3502 119.056 33.3445 117.824 35.4503 115.465L32.4664 112.801ZM22.4454 114.171C21.5994 113.379 21.0397 111.574 21.4589 109.959C21.6514 109.217 22.0288 108.617 22.5856 108.203C23.1368 107.794 24.0234 107.448 25.4464 107.494L25.5771 103.497C23.4233 103.426 21.6041 103.949 20.1994 104.993C18.8004 106.033 17.9719 107.472 17.5872 108.954C16.852 111.786 17.6528 115.165 19.7127 117.092L22.4454 114.171Z" fill="#FE018F"/>
<path d="M40.7183 99.2953L38.7222 99.1703L40.7183 99.2953ZM25.4464 107.494C26.5504 107.531 27.4746 106.665 27.5107 105.561C27.5468 104.457 26.6811 103.533 25.5771 103.497L25.4464 107.494ZM37.5496 86.0561C38.0629 88.6569 38.9912 94.8725 38.7222 99.1703L42.7144 99.4202C43.0167 94.5906 42.0029 87.9619 41.4739 85.2815L37.5496 86.0561ZM38.7222 99.1703C38.402 104.285 35.702 109.177 32.4664 112.801L35.4503 115.465C39.0607 111.421 42.3203 105.715 42.7144 99.4202L38.7222 99.1703ZM32.4664 112.801C31.1492 114.276 29.1567 115.153 27.132 115.349C25.0634 115.549 23.3453 115.013 22.4454 114.171L19.7127 117.092C21.7186 118.969 24.7286 119.6 27.5175 119.33C30.3502 119.056 33.3445 117.824 35.4503 115.465L32.4664 112.801ZM22.4454 114.171C21.5994 113.379 21.0397 111.574 21.4589 109.959C21.6514 109.217 22.0288 108.617 22.5856 108.203C23.1368 107.794 24.0234 107.448 25.4464 107.494L25.5771 103.497C23.4233 103.426 21.6041 103.949 20.1994 104.993C18.8004 106.033 17.9719 107.472 17.5872 108.954C16.852 111.786 17.6528 115.165 19.7127 117.092L22.4454 114.171Z" fill="#FE018F"/>
<circle cx="12" cy="67" r="12" fill="#11C8D6"/>
<circle cx="95" cy="12" r="12" fill="#11C8D6"/>
<circle cx="101" cy="111" r="12" fill="#11C8D6"/>
<path d="M9 25.5C11 41 17.5 50.5 22.5 52L39 26.5C37.5 22.5 33.017 20.3782 28.166 19.1655C24.166 18.1655 21.166 19.1655 15.666 17.6655C5.66603 14.1655 5.66605 14.8322 6.16605 15.6655C7.83271 18.1655 8 19.5 9 25.5Z" fill="#11C8D6" stroke="#11C8D6"/>
<path d="M27.5 24C27.5 28 25 37.5 21 43C18.5131 49.3949 13.442 34.7887 11.5 25.5C10.5 22 10.2763 18.6447 11 18.5C12.2322 18.2536 15.5 19.5 19 20.5C24.5 21.5 27.5 21 27.5 24Z" fill="#FE018F"/>
<path d="M27.5 24C27.5 28 25 37.5 21 43C18.5131 49.3949 13.442 34.7887 11.5 25.5C10.5 22 10.2763 18.6447 11 18.5C12.2322 18.2536 15.5 19.5 19 20.5C24.5 21.5 27.5 21 27.5 24Z" stroke="#FE018F"/>
<path d="M27.5 24C27.5 28 25 37.5 21 43C18.5131 49.3949 13.442 34.7887 11.5 25.5C10.5 22 10.2763 18.6447 11 18.5C12.2322 18.2536 15.5 19.5 19 20.5C24.5 21.5 27.5 21 27.5 24Z" stroke="#FE018F"/>
<path d="M132.5 34.5C130.155 49.0281 119.5 57.5 118.5 55.5L104.5 27C104.982 26.5447 107.431 25.4934 112 24.5C115.768 23.6809 122.5 24 128 23.5C134 22.5 137.993 21.2309 137.5 22C136.5 25 133.5 31 132.5 34.5Z" fill="#11C8D6" stroke="#11C8D6"/>
<path fill-rule="evenodd" clip-rule="evenodd" d="M104.16 26.707C101.404 28.7749 97.9791 30 94.2681 30C85.201 30 77.842 22.6864 77.7686 13.6366C75.1636 13.2177 72.4913 13 69.7681 13C60.3387 13 51.519 15.6102 43.992 20.1474L55.6075 37.3467C59.6917 35.209 64.3387 34 69.2681 34C83.3281 34 95.0908 43.8362 98.0503 57.0028L119.318 56.2601C117.758 44.6826 112.235 34.3617 104.16 26.707ZM98.7642 63.9821C98.5067 80.0522 85.3995 93 69.2681 93C65.7594 93 62.3938 92.3875 59.2724 91.2635L49.1591 108.569C55.4432 111.415 62.4205 113 69.7681 113C74.6307 113 79.3312 112.306 83.7758 111.011C83.7707 110.841 83.7681 110.671 83.7681 110.5C83.7681 101.387 91.1554 94 100.268 94C102.897 94 105.381 94.6146 107.587 95.708C115.126 86.9984 119.707 75.6579 119.767 63.2487L98.7642 63.9821ZM53.0043 88.1157C45.0282 82.8352 39.7681 73.7819 39.7681 63.5C39.7681 54.6513 43.664 46.7125 49.8342 41.3055L38.2633 24.1721C29.7204 31.1122 23.5123 40.8152 21 51.92C26.2162 54.692 29.7681 60.1812 29.7681 66.5C29.7681 72.0892 26.989 77.0293 22.7374 80.014C26.5308 90.4977 33.7298 99.351 42.9981 105.238L53.0043 88.1157Z" fill="#11C8D6"/>
<path d="M119 49.5C116.5 39.5 119 31 121 27C121.608 26.0887 126.548 25.8376 129.5 25.5C131.407 25.2819 134 24.5 134 25C133.731 28.2248 129.5 35.5 126.5 43C123.5 49.5 119.694 51.1189 119 49.5Z" fill="#FE018F"/>
<path d="M119 49.5C116.5 39.5 119 31 121 27C121.608 26.0887 126.548 25.8376 129.5 25.5C131.407 25.2819 134 24.5 134 25C133.731 28.2248 129.5 35.5 126.5 43C123.5 49.5 119.694 51.1189 119 49.5Z" stroke="#FE018F"/>
<path d="M119 49.5C116.5 39.5 119 31 121 27C121.608 26.0887 126.548 25.8376 129.5 25.5C131.407 25.2819 134 24.5 134 25C133.731 28.2248 129.5 35.5 126.5 43C123.5 49.5 119.694 51.1189 119 49.5Z" stroke="#FE018F"/>
</svg>
