<svg width="520" height="520" viewBox="0 0 520 520" fill="none" xmlns="http://www.w3.org/2000/svg">
<path d="M456 0C491.346 0 520 28.6538 520 64V456C520 491.346 491.346 520 456 520H64C28.6538 520 3.22171e-08 491.346 0 456V64C0 28.6538 28.6538 3.2213e-08 64 0H456ZM316.613 108.022C316.358 107.973 316.094 108.005 315.858 108.115C315.623 108.225 315.43 108.408 315.305 108.636C311.826 114.847 307.951 122.946 305.234 129.34C275.113 124.765 244.473 124.765 214.352 129.34C211.329 122.256 207.917 115.344 204.132 108.636C204.001 108.413 203.806 108.235 203.572 108.126C203.339 108.017 203.078 107.98 202.823 108.022C174.878 112.842 147.679 121.278 121.911 133.116C121.693 133.208 121.508 133.364 121.381 133.563C69.836 210.566 55.7074 285.665 62.6475 359.818C62.6643 360.002 62.7185 360.181 62.8066 360.343C62.8949 360.505 63.0159 360.648 63.1611 360.762C93.1671 382.993 126.733 399.964 162.425 410.949C162.676 411.022 162.945 411.016 163.193 410.934C163.442 410.851 163.659 410.694 163.816 410.485C171.49 400.059 178.282 389.011 184.123 377.458C184.204 377.3 184.251 377.126 184.261 376.948C184.27 376.771 184.242 376.593 184.178 376.428C184.114 376.262 184.015 376.111 183.889 375.986C183.762 375.861 183.611 375.764 183.444 375.702C172.735 371.604 162.367 366.664 152.438 360.928C152.255 360.822 152.102 360.674 151.991 360.495C151.881 360.316 151.816 360.113 151.803 359.903C151.79 359.693 151.828 359.483 151.916 359.292C152.004 359.101 152.137 358.935 152.305 358.808C154.396 357.243 156.451 355.631 158.467 353.972C158.643 353.829 158.856 353.737 159.081 353.708C159.306 353.679 159.535 353.712 159.742 353.806C224.803 383.504 295.23 383.504 359.528 353.806C359.737 353.709 359.97 353.673 360.198 353.702C360.427 353.731 360.642 353.825 360.82 353.972C362.808 355.595 364.896 357.251 366.999 358.808C367.164 358.933 367.297 359.096 367.385 359.284C367.473 359.472 367.514 359.679 367.504 359.886C367.494 360.093 367.434 360.295 367.329 360.474C367.224 360.652 367.076 360.802 366.899 360.911C356.993 366.701 346.615 371.643 335.876 375.686C335.709 375.75 335.557 375.848 335.431 375.975C335.304 376.101 335.206 376.254 335.142 376.421C335.078 376.588 335.049 376.767 335.059 376.945C335.068 377.124 335.116 377.299 335.197 377.458C341.16 389.019 347.984 400.017 355.487 410.469C355.642 410.682 355.859 410.841 356.108 410.924C356.358 411.007 356.628 411.01 356.879 410.933C392.63 399.982 426.25 383.009 456.291 360.746C456.437 360.643 456.56 360.509 456.651 360.354C456.743 360.201 456.801 360.029 456.821 359.852C465.103 274.103 442.941 199.618 398.038 133.597C397.933 133.374 397.75 133.214 397.524 133.116C371.753 121.287 344.556 112.852 316.613 108.022ZM193.846 234.517C213.887 234.517 229.888 252.67 229.573 274.6C229.573 296.679 213.738 314.65 193.846 314.65C174.251 314.65 158.119 296.678 158.119 274.583C158.119 252.504 173.953 234.517 193.846 234.517ZM325.938 234.517C345.98 234.517 361.98 252.67 361.665 274.6C361.665 296.678 345.996 314.65 325.938 314.65C306.344 314.65 290.211 296.678 290.211 274.583C290.211 252.504 306.029 234.517 325.938 234.517Z" fill="black"/>
</svg>
