<svg width="520" height="520" viewBox="0 0 520 520" fill="none" xmlns="http://www.w3.org/2000/svg">
<path d="M456 0C491.346 0 520 28.6538 520 64V456C520 491.346 491.346 520 456 520H296.266V335.594H356.797L368.375 260.438H296.266V211.688C296.266 191.172 306.32 171.063 338.617 171.062H371.422V107.078C371.422 107.078 341.664 102 313.227 102C253.813 102 215.016 137.953 215.016 203.156V260.438H149V335.594H215.016V520H64C28.6538 520 3.22171e-08 491.346 0 456V64C0 28.6538 28.6538 3.2213e-08 64 0H456Z" fill="currentColor"/>
</svg>
