<svg width="520" height="520" viewBox="0 0 520 520" fill="none" xmlns="http://www.w3.org/2000/svg">
<path d="M520 456C520 491.346 491.346 520 456 520H64C28.6538 520 0 491.346 0 456V64C0 28.6538 28.6538 0 64 0H456C491.346 0 520 28.6538 520 64V456ZM260.465 67C224.64 67 191.598 75.8291 161.348 93.4834C131.093 111.139 107.141 135.093 89.4834 165.348C71.8282 195.602 63 228.639 63 264.459C63 307.487 75.5535 346.179 100.667 380.545C125.778 414.914 158.218 438.696 197.983 451.894C202.612 452.753 206.039 452.148 208.267 450.096C210.495 448.041 211.608 445.466 211.608 442.385C211.608 441.869 211.565 437.242 211.479 428.501C211.417 422.316 211.378 416.69 211.36 411.623C211.35 408.488 208.525 406.11 205.436 406.645C201.665 407.335 196.908 407.629 191.165 407.546C185.425 407.466 179.466 406.864 173.297 405.745C167.125 404.637 161.383 402.065 156.069 398.037C150.758 394.009 146.987 388.737 144.758 382.228L142.188 376.311C140.474 372.372 137.776 367.996 134.09 363.2C131.043 359.232 127.967 356.32 124.863 354.461C123.599 353.705 122.302 352.999 121.105 352.142C119.906 351.285 118.793 350.252 117.764 349.054C116.735 347.855 115.965 346.655 115.451 345.454C114.936 344.252 115.362 343.266 116.735 342.492C117.39 342.124 118.296 341.845 119.455 341.655C122.577 341.143 125.763 341.578 128.892 342.045L129.333 342.111C132.761 342.799 137.002 344.851 142.061 348.281C147.116 351.709 151.272 356.165 154.529 361.647C158.474 368.677 163.225 374.034 168.799 377.72C174.368 381.406 179.983 383.245 185.639 383.245C191.294 383.245 196.178 382.817 200.294 381.964C202.42 381.52 204.478 380.962 206.468 380.288C209.909 379.124 212.195 375.234 213.064 371.707C215.29 362.673 209.712 349.835 200.67 347.64C199.804 347.43 198.95 347.213 198.106 346.991C190.31 344.933 182.252 341.591 173.94 336.959C165.624 332.333 158.725 326.588 153.241 319.734C147.757 312.878 143.256 303.876 139.745 292.737C136.232 281.594 134.475 268.739 134.475 254.17C134.475 244.491 135.949 235.484 138.898 227.15C145.132 209.53 149.024 191.105 150.726 172.492C152.036 158.17 165.321 146.945 178.699 152.225C188.47 156.082 195.624 159.386 200.168 162.125C207.197 166.361 215.64 167.668 223.682 166.034C235.663 163.601 247.922 162.384 260.463 162.384C273.481 162.384 286.198 163.695 298.614 166.317C305.812 167.837 313.383 166.826 319.604 162.898C326.285 158.783 334.175 155.011 343.254 151.583C355.922 146.805 367.836 155.921 369.739 169.327C369.81 169.826 369.875 170.323 369.935 170.819C372.203 189.567 375.914 209.623 382.136 227.454C385.015 235.705 386.455 244.611 386.455 254.173C386.455 268.742 384.691 281.637 381.184 292.866C377.672 304.097 373.132 313.089 367.563 319.863C361.988 326.636 355.044 332.336 346.732 336.961C338.419 341.59 330.358 344.932 322.562 346.99C312.735 349.584 306.631 364.851 308.461 374.848C309.204 378.904 309.575 383.333 309.575 388.132V442.378C309.575 445.46 310.647 448.033 312.792 450.089C314.934 452.141 318.318 452.745 322.946 451.885C362.717 438.689 395.157 414.907 420.267 380.538C445.374 346.172 457.933 307.48 457.933 264.452C457.924 228.636 449.09 195.602 431.443 165.348C413.785 135.093 389.834 111.14 359.582 93.4834C329.325 75.8264 296.294 67.0001 260.465 67Z" fill="currentColor"/>
</svg>
