<svg width="520" height="520" viewBox="0 0 520 520" fill="none" xmlns="http://www.w3.org/2000/svg">
<path d="M456 0C491.346 0 520 28.6538 520 64V456C520 491.346 491.346 520 456 520H64C28.6538 520 3.22171e-08 491.346 0 456V64C0 28.6538 28.6538 3.2213e-08 64 0H456ZM160.687 72C111.924 72 72 111.924 72 160.684V358.504C72.0001 407.35 111.924 447.192 160.687 447.192H358.508C407.351 447.192 447.19 407.35 447.19 358.504V160.685C447.19 111.924 407.351 72.0001 358.508 72H160.687ZM358.508 94.1729C395.162 94.173 425.021 124.117 425.021 160.685V358.505C425.021 395.159 395.163 425.024 358.508 425.024H160.687C124.116 425.024 94.17 395.16 94.1699 358.505V160.685C94.1699 124.116 124.117 94.1729 160.687 94.1729H358.508ZM259.596 138.596C192.755 138.596 138.596 192.757 138.596 259.599C138.596 326.436 192.755 380.599 259.596 380.599C326.436 380.598 380.598 326.436 380.598 259.599C380.598 192.757 326.436 138.596 259.596 138.596ZM259.596 163.711C312.529 163.711 355.48 206.663 355.48 259.599C355.48 312.532 312.529 355.478 259.596 355.478C206.663 355.477 163.711 312.532 163.711 259.599C163.711 206.663 206.663 163.711 259.596 163.711ZM378.307 122.151C367.506 122.152 358.836 130.907 358.836 141.623C358.836 152.424 367.506 161.097 378.307 161.097C389.025 161.097 397.777 152.424 397.777 141.623C397.778 130.907 389.026 122.151 378.307 122.151Z" fill="currentColor"/>
</svg>
