<svg width="520" height="520" viewBox="0 0 520 520" fill="none" xmlns="http://www.w3.org/2000/svg">
<path d="M456 0C491.346 0 520 28.6538 520 64V456C520 491.346 491.346 520 456 520H64C28.6538 520 3.22171e-08 491.346 0 456V64C0 28.6538 28.6538 3.2213e-08 64 0H456ZM75 445H167.5V204.5H75V445ZM354.035 190.806C301.717 190.806 278.5 231.546 278.5 231.546V204.5H204.5V445H278.5V315.519C278.5 280.831 296.649 260.181 327.229 260.181C355.331 260.181 371 279.999 371 315.519V445H445V288.825C445 222.743 406.372 190.806 354.035 190.806ZM120.177 75C95.2204 75.0001 75 95.3869 75 120.51C75.0003 145.651 95.2205 166.037 120.177 166.037C145.115 166.037 165.353 145.651 165.335 120.51C165.335 95.3868 145.115 75 120.177 75Z" fill="currentColor"/>
</svg>
