<svg width="395" height="386" viewBox="0 0 395 386" fill="none" xmlns="http://www.w3.org/2000/svg">
<path d="M368.444 98.3472C350.786 68.0924 326.834 44.1395 296.582 26.4834C266.325 8.82629 233.294 0 197.464 0C161.64 0 128.598 8.82899 98.3472 26.4834C68.0924 44.1386 44.1413 68.0924 26.4834 98.3472C8.82809 128.601 0 161.639 0 197.459C0 240.487 12.5537 279.179 37.6673 313.545C62.7782 347.914 95.2178 371.696 134.983 384.893C139.612 385.752 143.039 385.148 145.267 383.096C147.496 381.041 148.609 378.467 148.609 375.385C148.609 374.871 148.565 370.245 148.479 361.501C148.391 352.758 148.349 345.13 148.349 338.622L142.435 339.645C138.665 340.336 133.908 340.628 128.165 340.546C122.425 340.465 116.466 339.864 110.297 338.745C104.124 337.637 98.3833 335.066 93.0691 331.038C87.7577 327.009 83.9871 321.737 81.7582 315.228L79.1871 309.311C77.4734 305.372 74.7753 300.996 71.0894 296.2C67.4034 291.399 63.6761 288.144 59.9055 286.431L58.1053 285.142C56.9057 284.286 55.7927 283.253 54.7633 282.054C53.7349 280.855 52.9649 279.656 52.4507 278.454C51.9356 277.252 52.3625 276.266 53.7358 275.493C55.1091 274.719 57.5911 274.343 61.1924 274.343L66.3327 275.112C69.7611 275.799 74.0018 277.851 79.0602 281.281C84.1158 284.709 88.2719 289.165 91.5292 294.647C95.4736 301.677 100.226 307.033 105.799 310.719C111.368 314.405 116.983 316.245 122.639 316.245C128.294 316.245 133.179 315.816 137.294 314.964C141.405 314.106 145.262 312.818 148.864 311.105C150.406 299.616 154.606 290.789 161.46 284.62C151.691 283.593 142.908 282.047 135.107 279.991C127.31 277.932 119.253 274.591 110.941 269.959C102.624 265.333 95.7248 259.588 90.2414 252.735C84.757 245.878 80.2561 236.876 76.7448 225.737C73.2318 214.594 71.4748 201.739 71.4748 187.17C71.4748 166.426 78.247 148.774 91.7885 134.203C85.4451 118.607 86.0439 101.124 93.5869 81.7546C98.558 80.2102 105.93 81.3692 115.699 85.2244C125.47 89.0815 132.624 92.3856 137.168 95.1251C141.712 97.8636 145.353 100.184 148.096 102.066C164.041 97.6115 180.494 95.3835 197.463 95.3835C214.431 95.3835 230.888 97.6115 246.833 102.066L256.604 95.8986C263.285 91.7831 271.174 88.0116 280.254 84.5832C289.339 81.1566 296.285 80.2129 301.087 81.7573C308.798 101.127 309.485 118.61 303.139 134.205C316.68 148.776 323.455 166.433 323.455 187.173C323.455 201.742 321.692 214.637 318.184 225.866C314.672 237.097 310.132 246.09 304.563 252.864C298.988 259.637 292.045 265.336 283.733 269.961C275.419 274.59 267.359 277.931 259.562 279.99C251.761 282.049 242.978 283.596 233.209 284.624C242.119 292.335 246.575 304.506 246.575 321.132V375.378C246.575 378.46 247.647 381.032 249.792 383.088C251.934 385.141 255.318 385.745 259.946 384.885C299.717 371.689 332.157 347.907 357.267 313.538C382.374 279.172 394.932 240.48 394.932 197.452C394.923 161.636 386.091 128.601 368.444 98.3472Z" fill="currentColor"/>
</svg>
