<svg width="520" height="520" viewBox="0 0 520 520" fill="none" xmlns="http://www.w3.org/2000/svg">
<path d="M456 0C491.346 0 520 28.6538 520 64V456C520 491.346 491.346 520 456 520H64C28.6538 520 3.22171e-08 491.346 0 456V64C0 28.6538 28.6538 3.2213e-08 64 0H456ZM327.196 78.1738C307.505 78.3314 287.803 78.1734 267.954 78.4766L267.905 78.4404C267.457 139.344 267.748 200.261 267.603 261.322C267.457 288.446 268.063 315.412 266.548 342.535L266.535 342.705C265.796 348.634 263.577 354.09 260.34 358.601L260.218 358.819C251.512 372.92 236.114 382.463 218.375 382.996H218.484C217.757 383.032 217.029 383.045 216.289 383.045C190.645 383.045 169.378 364.323 165.353 339.516L165.376 339.807C165.085 337.382 164.928 334.909 164.928 332.411C164.928 326.252 165.861 320.297 167.474 315.12L167.583 314.757C174.713 294.544 193.979 280.067 216.629 280.067C222.8 280.067 228.718 281.146 233.847 283.001C233.847 260.582 234.755 238.151 234.452 215.732L235.132 215.829C228.815 214.75 222.315 214.18 215.683 214.18C156.671 214.18 108.122 259.006 102.181 316.951C101.878 324.372 102.023 331.95 102.326 339.528L102.375 340.025C106.255 376.437 127.231 407.743 157.641 426.04L157.155 425.761C173.864 435.909 193.47 441.754 214.446 441.754C216.216 441.754 217.974 441.717 219.466 441.645H219.636C256.532 440.529 288.978 421.699 309.009 393.012L308.767 393.388C320.746 376.279 328.215 355.788 329.464 333.32C329.912 289.239 329.621 245 329.767 200.761C337.218 205.826 345.075 210.389 354.32 214.835L353.326 214.423C372.981 223.614 394.782 228.96 417.965 229.542V168.48L417.625 168.457C393.087 166.76 370.828 156.771 353.721 141.363C337.835 124.948 327.851 102.791 327.196 78.1738Z" fill="currentColor"/>
</svg>
