<svg width="520" height="520" viewBox="0 0 520 520" fill="none" xmlns="http://www.w3.org/2000/svg">
<path d="M456 0C491.346 0 520 28.6538 520 64V456C520 491.346 491.346 520 456 520H64C28.6538 520 3.22171e-08 491.346 0 456V64C0 28.6538 28.6538 3.2213e-08 64 0H456ZM219.645 277.878L79 429.814H110.656L233.793 296.789L333.28 429.814H441L293.369 232.427L424.281 91H392.626L279.227 213.51L187.6 91H79.8809L219.645 277.878ZM394.442 406.499H344.956L126.433 114.321H175.918L394.442 406.499Z" fill="currentColor"/>
</svg>
