<svg width="520" height="520" viewBox="0 0 520 520" fill="none" xmlns="http://www.w3.org/2000/svg">
<path fill-rule="evenodd" clip-rule="evenodd" d="M215.544 316.579V192.718C259.572 213.409 293.671 233.396 334.001 254.945C300.738 273.368 259.572 294.04 215.544 316.579ZM460.911 131.117C453.316 121.124 440.372 113.345 426.592 110.77C386.086 103.088 133.389 103.066 92.9053 110.77C81.8543 112.839 72.0138 117.84 63.5604 125.61C27.942 158.626 39.1031 335.684 47.6886 364.365C51.2988 376.779 55.9659 385.732 61.8437 391.609C69.4164 399.379 79.7848 404.729 91.6943 407.128C125.045 414.018 296.864 417.87 425.887 408.163C437.774 406.094 448.297 400.571 456.596 392.471C489.529 359.587 487.284 172.586 460.911 131.117Z" fill="currentColor"/>
</svg>
