<svg xmlns="http://www.w3.org/2000/svg" width="365" height="309" fill="none" viewBox="0 0 365 309"><g id="Group"><path id="Vector" fill="#111" d="M77.936 5.295c40.35.54 107.43-12.18 210.6 0 43.08-8.13 77.49 26.67 75.93 75.93-8.22 50.04-1.29 121.02 0 151.83.93 44.97-17.46 73.2-75.93 75.93-59.76-3.54-123.45-10.08-210.6 0-44.79 1.05-66.42-33.3-75.93-75.93 4.11-55.26-6.12-116.1 0-151.83 7.74-52.32 33.03-79.83 75.93-75.93"/><g id="mouth-closed"><path id="Vector_2" fill="#fff" d="m130.49 197.859 1.362 1.763q1.363 1.764 5.192 4.3 3.83 2.537 11.387 5.44 7.56 2.937 11.885 3.795 4.328.891 7.682 1.017 3.357.158 6.697.054a756 756 0 0 1 8.863-.208q5.522-.105 9.959-.836 4.438-.732 8.14-1.781 3.67-1.08 9.046-2.593 5.345-1.545 9.08-3.024t10.141-5.232q6.377-3.75 7.2-3.964a5.5 5.5 0 0 1 1.689-.235q.838.015 1.688.227a6.4 6.4 0 0 1 1.594.662q.744.448 1.409 1.068a7.6 7.6 0 0 1 1.132 1.415q.494.76.818 1.664.293.873.41 1.821.115.916.022 1.845a7.8 7.8 0 0 1-.396 1.837 8.1 8.1 0 0 1-1.877 3.048 6.3 6.3 0 0 1-1.401 1.042q-.75.441-3.106.518-2.388.046-3.41-.551a6.6 6.6 0 0 1-1.825-1.505 7.5 7.5 0 0 1-1.291-2.064 9 9 0 0 1-.654-2.4q-.135-1.244.089-2.478a7.8 7.8 0 0 1 .815-2.324 6.8 6.8 0 0 1 1.438-1.901 6.1 6.1 0 0 1 1.923-1.303 5.9 5.9 0 0 1 2.178-.561 6.4 6.4 0 0 1 2.257.259q1.125.327 2.094 1.026a7.6 7.6 0 0 1 1.658 1.713q.719 1.011 1.09 2.208.402 1.196.418 2.447a8.6 8.6 0 0 1-.327 2.493 8.1 8.1 0 0 1-1.031 2.205 7.4 7.4 0 0 1-1.629 1.714 7 7 0 0 1-2.026 1.08 6.6 6.6 0 0 1-2.255.268 6.4 6.4 0 0 1-2.214-.524 7 7 0 0 1-1.959-1.266 7.9 7.9 0 0 1-1.491-1.92 8.3 8.3 0 0 1-.886-2.287 8.8 8.8 0 0 1-.152-2.497 8.1 8.1 0 0 1 .571-2.408 8.4 8.4 0 0 1 1.218-2.085 6.7 6.7 0 0 1 1.79-1.526 6.4 6.4 0 0 1 2.133-.789q1.122-.233-.087.038-1.24.24-.417.026a5.5 5.5 0 0 1 1.689-.235q.838.015 1.688.227a6.4 6.4 0 0 1 1.594.662q.744.448 1.409 1.068a7.6 7.6 0 0 1 1.132 1.415q.495.76.789 1.666.321.87.437 1.787.117.948.024 1.877a8.5 8.5 0 0 1-.396 1.837 8.1 8.1 0 0 1-1.877 3.048 6.3 6.3 0 0 1-1.401 1.042q-.75.44-4.459 2.842-3.707 2.434-6.779 3.511a393 393 0 0 1-6.998 2.37q-3.954 1.327-9.588 3.516-5.635 2.189-9.904 3.239a170 170 0 0 1-9.237 1.913 316 316 0 0 1-10.984 1.689q-5.984.86-9.844.763a95 95 0 0 1-7.948-.473q-4.117-.376-8.98-1.234a792 792 0 0 1-11.696-2.158q-6.801-1.268-9.882-2.795-3.108-1.493-6.565-4.283-3.455-2.757-5.855-5.875-2.399-3.085-3.507-5.094a319 319 0 0 1-1.516-2.809 9 9 0 0 1-.645-1.774 9.5 9.5 0 0 1-.231-1.833 8.5 8.5 0 0 1 .154-1.888 10 10 0 0 1 .579-1.782 8.6 8.6 0 0 1 .95-1.575 6.5 6.5 0 0 1 1.268-1.263 6.6 6.6 0 0 1 1.501-.883 5.5 5.5 0 0 1 1.643-.495 6.4 6.4 0 0 1 1.703-.005 7 7 0 0 1 1.669.426q.828.345 1.547.862.72.55 1.3 1.24.612.722.582.723"/></g><g id="eye-open-left"><path id="Vector_3" fill="#333" stroke="#fff" stroke-width="3" d="M113.015 102.621c1.776-.079 3.501.046 4.569.299l.004.001c2.184.51 3.704 1.795 4.238 3.188v.001l.005.012c.27.685.379 1.885.256 3.262-.122 1.356-.445 2.619-.826 3.383l-.005.008c-.468.951-1.049 1.909-1.732 2.562-.656.628-1.264.855-1.921.737-.342-.061-.983-.34-1.905-.907a32 32 0 0 1-2.063-1.411c1.041-.997 1.93-1.966 2.407-2.664l.003-.004c.977-1.441.938-2.934.521-4.138-.396-1.145-1.134-2.061-1.67-2.616h-.001c-.798-.858-1.949-1.186-2.871-1.319a10.4 10.4 0 0 0-1.704-.093 19 19 0 0 1 2.695-.301Zm-7.211 8.641a6 6 0 0 1 .154.201l.012.016.164.258.252.173c.361.248.986.748 1.835 1.429l.681.545c-.681.525-1.328.974-1.886 1.291a5 5 0 0 1-.781.372 3 3 0 0 1-.126-.278c-.21-.533-.386-1.313-.508-2.245a23 23 0 0 1-.175-2.22q.226.269.378.458Z"/><path id="Vector_4" fill="#fff" stroke="#fff" stroke-width="3" d="M110.896 82.977c4.854-.56 9.903.18 15.167 2.273l.005.002c5.008 1.97 8.952 5.154 11.87 9.572l.279.432c2.878 4.573 4.362 9.1 4.526 13.596l.012.435c.061 4.671-1.135 9.192-3.622 13.581l-.001.002c-2.478 4.394-5.953 7.937-10.454 10.638-4.443 2.653-9.391 3.701-14.902 3.119a25 25 0 0 1-5.496-1.248c5.972-.318 11.079-2.384 15.241-6.228l.003-.003c4.188-3.888 6.962-8.436 8.267-13.632l.001-.005c1.278-5.159.98-10.133-.92-14.871l-.001-.002-.185-.446c-1.964-4.564-5.388-7.977-10.177-10.224l-.005-.002-.463-.21q-2.951-1.301-5.931-1.732-.375-.115-.756-.218a23.2 23.2 0 0 0-7.118-.8l-.478.026a23.4 23.4 0 0 0-7.485 1.723 23.5 23.5 0 0 0-3.847 2.014 19 19 0 0 1 3.203-2.819h-.001c3.984-2.753 8.4-4.41 13.268-4.973Zm-10.749 8.28c-2.619 1.97-4.762 4.79-6.445 8.384l-.002.004c-1.291 2.783-2.25 5.055-2.861 6.8-.305.872-.533 1.642-.671 2.297-.13.615-.214 1.283-.104 1.877l.003.019.005.018.272 1.283.067.322.017.08.002.011v.002l.002.004.004.022.017.085.067.339.272 1.357.006.026q.434 1.988 1.336 3.829a16.8 16.8 0 0 0 2.193 3.381v.001a15.6 15.6 0 0 0 2.955 2.78v.001a16.4 16.4 0 0 0 3.512 2.027l.016.007.016.007a18.7 18.7 0 0 0 3.863 1.072l.016.003.015.002q2.014.287 4.031.107a16.8 16.8 0 0 0 3.936-.83l.015-.006a16.6 16.6 0 0 0 3.652-1.807l-.001-.001a15.4 15.4 0 0 0 3.105-2.569l-.001-.001a17.7 17.7 0 0 0 2.408-3.268 16.3 16.3 0 0 0 1.558-3.733l.002-.006q.539-1.975.611-3.994v-.013l.001-.014q.033-1.827.097-3.283l.002-.033a2.4 2.4 0 0 0-.033-.454 1.7 1.7 0 0 0-.35-.773 1.57 1.57 0 0 0-1.301-.577c-.41.021-.706.195-.839.283a2 2 0 0 0-.31.255 12.4 12.4 0 0 0-1.917-2.428l-.004-.004c-2.17-2.156-4.644-3.53-7.386-4.129a10 10 0 0 1 1.278-.76c1.704-.844 3.566-1.119 5.639-.791h.006q3.523.544 5.237.793l.353.048a21.7 21.7 0 0 1 2.274 4.596 20.8 20.8 0 0 1 1.131 6.586 20.7 20.7 0 0 1-1.009 6.587 21.2 21.2 0 0 1-3.1 5.958 20.7 20.7 0 0 1-4.821 4.636 20.8 20.8 0 0 1-6.037 2.883q-3.253.921-6.631.767a20.5 20.5 0 0 1-6.534-1.38 21 21 0 0 1-2.327-1.069c-2.508-2.145-4.5-3.997-5.987-5.565-.856-.902-1.517-1.685-2.011-2.351a25.5 25.5 0 0 1-1.63-4.594l-.002-.009-.104-.422c-.982-4.158-.71-8.904.922-14.284a20 20 0 0 1 3.463-5.05l.007-.008q.352-.38.719-.738.42-.404.868-.788l.008-.006a21 21 0 0 1 1.947-1.502q.832-.56 1.727-1.04l.01-.005a20.6 20.6 0 0 1 2.755-1.253Zm6.207.231c2.365-.658 4.726-.836 7.094-.526q1.7.536 3.296 1.366a21 21 0 0 1 4.902 3.522l-2.27-.346h-.001c-2.641-.416-5.136-.071-7.434 1.068-1.485.737-2.85 1.787-4.105 3.12q-1.128.056-2.304.258c-2.699.464-4.884 1.51-6.194 3.37-1.319 1.873-1.528 4.25-.974 6.875l.001.006c.566 2.624 1.681 4.812 3.408 6.462 1.728 1.65 3.968 2.668 6.623 3.125h.002a14.2 14.2 0 0 0 3.175.197 7 7 0 0 0 2.253.425c1.782.028 3.373-.685 4.773-1.926a15 15 0 0 1-1.34 1.667l-.001.001a12.3 12.3 0 0 1-2.525 2.084l-.031.02a13.7 13.7 0 0 1-2.98 1.477 13.8 13.8 0 0 1-3.238.684 14.5 14.5 0 0 1-3.33-.089 15.6 15.6 0 0 1-3.199-.889 13.4 13.4 0 0 1-2.864-1.654l-.015-.011-.015-.01-.334-.248a12.6 12.6 0 0 1-2.078-2.018l-.005-.006-.005-.007-.262-.322a13.8 13.8 0 0 1-1.549-2.469 13.8 13.8 0 0 1-1.097-3.132l-.268-1.346-.069-.34-.016-.085-.004-.02-.002-.006v-.002l-.002-.008v-.009l-.002-.001v-.005l-.005-.02-.016-.08-.069-.321-.263-1.249c-.002-.024-.013-.227.088-.712.102-.48.286-1.116.568-1.922.563-1.61 1.474-3.779 2.748-6.523 2.455-5.242 5.789-8.276 9.934-9.425zm2.855 11.191c3.106.118 5.766 1.32 8.059 3.597 1.176 1.177 1.829 2.293 2.094 3.352q-.6 1.112-1.356 2.608c-1.01 2-2.256 3.287-3.689 4.01a7 7 0 0 1-2.283.686c-.743-.355-1.568-.923-2.476-1.762l-.352-.335c-1.826-1.797-2.685-3.545-2.819-5.248-.135-1.71.441-3.621 1.972-5.776l.008-.01q.416-.597.842-1.122Zm-3.953.387c-1.366 2.222-2.039 4.484-1.86 6.756.177 2.251 1.177 4.33 2.843 6.236a8.1 8.1 0 0 1-2.393-1.565c-1.211-1.156-2.082-2.763-2.547-4.918h.001c-.455-2.157-.177-3.581.49-4.527.593-.842 1.667-1.555 3.466-1.982Z"/><circle id="circle-left" cx="114.186" cy="108.996" r="27" fill="#fff"/></g><g id="eye-open-right"><path id="Vector_5" fill="#333" stroke="#fff" stroke-width="3" d="M250.151 103.168c1.777-.079 3.502.046 4.57.299l.004.001c2.183.51 3.703 1.795 4.238 3.188v.001l.005.012c.269.685.379 1.885.256 3.262-.122 1.356-.445 2.619-.827 3.382l-.004.009c-.468.951-1.05 1.908-1.732 2.562-.656.628-1.265.855-1.922.737-.342-.061-.982-.34-1.904-.907a32 32 0 0 1-2.064-1.411c1.042-.997 1.931-1.966 2.408-2.664l.003-.004c.977-1.441.938-2.934.521-4.138-.396-1.145-1.135-2.061-1.671-2.616h-.001c-.798-.859-1.948-1.186-2.87-1.319a10.3 10.3 0 0 0-1.704-.093 19 19 0 0 1 2.694-.301Zm-7.211 8.641q.075.093.121.154l.034.047.011.015.165.259.251.173c.361.248.987.747 1.835 1.429q.327.26.682.545c-.681.525-1.328.974-1.887 1.291a5 5 0 0 1-.78.372 3 3 0 0 1-.126-.279c-.21-.532-.386-1.312-.509-2.244a23 23 0 0 1-.175-2.22q.227.269.378.458Z"/><path id="Vector_6" fill="#fff" stroke="#fff" stroke-width="3" d="M248.032 83.523c4.855-.56 9.904.18 15.168 2.274l.005.002c5.008 1.97 8.952 5.154 11.869 9.572l.28.432c2.877 4.573 4.361 9.1 4.526 13.595l.012.436c.06 4.671-1.135 9.191-3.622 13.581l-.001.002c-2.478 4.394-5.954 7.937-10.455 10.638-4.442 2.653-9.39 3.701-14.901 3.119a25 25 0 0 1-5.496-1.248c5.971-.318 11.079-2.384 15.241-6.228l.003-.003c4.188-3.888 6.962-8.436 8.267-13.633l.001-.004c1.278-5.159.98-10.133-.92-14.871l-.001-.002-.186-.446c-1.964-4.565-5.387-7.977-10.176-10.224l-.005-.002-.463-.21q-2.951-1.301-5.931-1.732-.375-.115-.757-.218a23.2 23.2 0 0 0-7.117-.8l-.478.026a23.4 23.4 0 0 0-7.485 1.723 23.5 23.5 0 0 0-3.848 2.013 19 19 0 0 1 3.204-2.818h-.001c3.984-2.753 8.4-4.41 13.267-4.974Zm-10.748 8.282c-2.619 1.97-4.762 4.789-6.445 8.383l-.002.004c-1.292 2.782-2.251 5.054-2.861 6.8-.305.872-.534 1.642-.671 2.297-.13.615-.214 1.283-.104 1.877l.003.019.005.018.271 1.283.068.322.016.08.002.01h.001v.002l.001.005.005.022.017.085.067.339.272 1.357.006.025a16.8 16.8 0 0 0 1.336 3.829 16.7 16.7 0 0 0 2.193 3.382v.001a15.6 15.6 0 0 0 2.955 2.78v.001a16.4 16.4 0 0 0 3.512 2.027l.015.007.017.007q1.89.749 3.863 1.072l.016.003.014.002q2.014.287 4.032.107a17 17 0 0 0 3.935-.83l.016-.006a16.7 16.7 0 0 0 3.651-1.807l-.001-.001a15.4 15.4 0 0 0 3.106-2.569l-.001-.001a17.7 17.7 0 0 0 2.408-3.268 16.3 16.3 0 0 0 1.558-3.733l.002-.007a17.5 17.5 0 0 0 .611-3.993v-.013l.001-.014q.032-1.827.097-3.283l.001-.033a2.2 2.2 0 0 0-.033-.455 1.7 1.7 0 0 0-.349-.772 1.57 1.57 0 0 0-1.301-.577 1.7 1.7 0 0 0-.839.283 2 2 0 0 0-.311.255 12.4 12.4 0 0 0-1.917-2.428l-.003-.004c-2.171-2.156-4.644-3.53-7.386-4.13q.631-.439 1.278-.758c1.704-.845 3.566-1.12 5.639-.792h.006q3.523.544 5.237.793.186.026.353.047a21.7 21.7 0 0 1 2.274 4.597 20.83 20.83 0 0 1 .122 13.173 21.2 21.2 0 0 1-3.101 5.958 20.7 20.7 0 0 1-4.82 4.636 20.8 20.8 0 0 1-6.037 2.883q-3.254.921-6.631.767a20.5 20.5 0 0 1-6.534-1.38 21 21 0 0 1-2.327-1.069c-2.508-2.145-4.501-3.998-5.988-5.566-.855-.901-1.517-1.684-2.01-2.35a25.6 25.6 0 0 1-1.63-4.594l-.002-.01-.105-.421c-.981-4.158-.708-8.904.922-14.284a20 20 0 0 1 3.464-5.05l.007-.008q.351-.38.719-.739.42-.403.868-.787l.008-.007a21 21 0 0 1 1.947-1.501q.833-.56 1.727-1.04l.009-.005a20.5 20.5 0 0 1 2.756-1.253Zm6.207.23c2.365-.658 4.726-.836 7.094-.526a21 21 0 0 1 8.197 4.888l-2.269-.346h-.001c-2.641-.416-5.136-.071-7.434 1.068-1.485.737-2.85 1.787-4.105 3.12a19 19 0 0 0-2.304.258c-2.7.464-4.884 1.51-6.194 3.37-1.319 1.873-1.528 4.25-.974 6.875l.001.006c.566 2.624 1.68 4.812 3.408 6.462s3.968 2.668 6.623 3.125h.002q1.65.282 3.175.197a7 7 0 0 0 2.253.425c1.782.028 3.373-.685 4.772-1.926a15 15 0 0 1-1.339 1.667l-.001.001a12.3 12.3 0 0 1-2.525 2.084l-.031.02a13.7 13.7 0 0 1-2.981 1.477 13.8 13.8 0 0 1-3.237.684 14.5 14.5 0 0 1-3.33-.089 15.6 15.6 0 0 1-3.199-.889 13.4 13.4 0 0 1-2.864-1.654l-.015-.011-.016-.01-.333-.249a12.6 12.6 0 0 1-2.078-2.017l-.006-.006-.005-.007-.261-.322a13.8 13.8 0 0 1-1.549-2.469 13.8 13.8 0 0 1-1.097-3.132l-.268-1.346-.069-.34-.016-.085-.004-.021-.002-.005v-.002l-.002-.008-.001-.008v-.001l-.001-.001-.001-.005-.004-.02-.017-.08-.068-.321-.264-1.249c-.001-.024-.013-.227.089-.712.101-.48.286-1.116.568-1.923.562-1.609 1.474-3.778 2.748-6.522 2.454-5.242 5.788-8.277 9.933-9.425zm2.855 11.191c3.106.117 5.766 1.32 8.058 3.597 1.176 1.177 1.83 2.293 2.095 3.352q-.6 1.112-1.356 2.608c-1.01 2-2.256 3.287-3.689 4.01a7.1 7.1 0 0 1-2.283.686c-.744-.355-1.569-.923-2.477-1.762l-.351-.335c-1.826-1.797-2.685-3.545-2.82-5.248-.134-1.71.442-3.621 1.973-5.777l.008-.009q.416-.597.842-1.122Zm-3.953.387c-1.366 2.222-2.04 4.484-1.861 6.756.177 2.251 1.178 4.33 2.844 6.235a8.1 8.1 0 0 1-2.394-1.564c-1.21-1.156-2.081-2.763-2.546-4.918h.001c-.456-2.157-.177-3.581.49-4.527.593-.842 1.667-1.555 3.466-1.982Z"/><circle id="circle-right" cx="251.686" cy="110" r="27" fill="#fff"/></g><g id="eye-closed-right"><path id="Vector_7" fill="#fff" d="m223.092 106.751.696-1.315q.72-1.33 2.035-3.227a24 24 0 0 1 3.14-3.671q1.802-1.76 6.744-3.717 4.947-1.977 7.296-2.447a31 31 0 0 1 4.459-.53q2.11-.06 6.656.872 4.542.952 6.765 1.915a33 33 0 0 1 4.122 2.11q1.88 1.143 4.108 3 2.208 1.853 5.892 6.03a762 762 0 0 0 4.158 4.698q.474.52.801 1.148.333.609.505 1.3.16.668.167 1.38.007.714-.135 1.39-.167.69-.48 1.326a6.7 6.7 0 0 1-.781 1.173 5.6 5.6 0 0 1-1.023.931 5.8 5.8 0 0 1-1.203.686q-.659.247-1.341.347a5.8 5.8 0 0 1-1.385.032 5.36 5.36 0 0 1-2.567-.944q-.567-.38 0 0 .581.404-.161-.16a5.7 5.7 0 0 1-1.297-1.328 5.4 5.4 0 0 1-.794-1.674 5.9 5.9 0 0 1-.235-1.844q.048-.944.383-1.838a6.3 6.3 0 0 1 .912-1.628 5.6 5.6 0 0 1 1.393-1.228 5.1 5.1 0 0 1 1.693-.73 5.6 5.6 0 0 1 1.832-.148 5.8 5.8 0 0 1 1.788.451 5.87 5.87 0 0 1 2.677 2.473q.442.817.616 1.753.154.932.027 1.875a6 6 0 0 1-.567 1.773 6 6 0 0 1-1.086 1.526q-.675.65-1.517 1.076a5.4 5.4 0 0 1-1.769.549 5.48 5.48 0 0 1-3.541-.711 5.5 5.5 0 0 1-1.433-1.178q-.606-.714-.958-1.571a5.9 5.9 0 0 1-.442-1.813 6.5 6.5 0 0 1 .171-1.868q.24-.917.75-1.708a5.4 5.4 0 0 1 1.252-1.384 5.3 5.3 0 0 1 1.598-.915 5.6 5.6 0 0 1 1.821-.353q.924-.022 2.397.658 1.458.656 1.932 1.176t.801 1.148q.333.609.505 1.3.16.668.167 1.38.007.714-.135 1.39-.167.69-.48 1.326a6.7 6.7 0 0 1-.781 1.173 5.6 5.6 0 0 1-1.023.931 5.8 5.8 0 0 1-1.203.686q-.659.247-1.341.347a5.8 5.8 0 0 1-1.385.032 5.36 5.36 0 0 1-2.567-.944q-.567-.38-4.053-4.47-3.5-4.113-5.282-5.497-1.797-1.407-4.338-2.873-2.536-1.484-5.626-2.249-3.075-.74-5.849-.577-2.774.165-6.494 1.686-3.715 1.501-5.24 2.942-1.51 1.464-2.358 2.661a42 42 0 0 1-1.231 1.714 4.5 4.5 0 0 1-.868.868 5.4 5.4 0 0 1-1.047.621 5.6 5.6 0 0 1-1.148.373 5.2 5.2 0 0 1-2.375-.166 4.4 4.4 0 0 1-1.096-.508 5.1 5.1 0 0 1-1.675-1.744 5.4 5.4 0 0 1-.486-1.132 5.8 5.8 0 0 1-.189-1.204q-.031-.616.093-1.216.106-.604.358-1.153z"/></g><g id="eye-closed-left"><path id="Vector_8" fill="#fff" d="m143.204 107.778-.696-1.315q-.72-1.33-2.034-3.227a24 24 0 0 0-3.14-3.67q-1.802-1.76-6.744-3.718-4.947-1.976-7.296-2.446a31 31 0 0 0-4.459-.53q-2.11-.06-6.657.872-4.54.951-6.764 1.914a33 33 0 0 0-4.122 2.11q-1.88 1.144-4.108 3-2.208 1.852-5.892 6.031a867 867 0 0 1-4.158 4.698 5.5 5.5 0 0 0-.801 1.147q-.332.609-.506 1.3a6.3 6.3 0 0 0-.166 1.381q-.007.712.135 1.389.166.691.48 1.327.33.63.78 1.172.447.522 1.024.932a5.8 5.8 0 0 0 1.203.685q.659.248 1.34.347a5.8 5.8 0 0 0 1.386.032 5.3 5.3 0 0 0 2.567-.943q.567-.381 0 0-.582.403.16-.161a5.7 5.7 0 0 0 1.298-1.328 5.5 5.5 0 0 0 .794-1.674 5.9 5.9 0 0 0 .234-1.844 6 6 0 0 0-.382-1.837 6.3 6.3 0 0 0-.912-1.629 5.6 5.6 0 0 0-1.393-1.228 5.1 5.1 0 0 0-1.693-.73 5.6 5.6 0 0 0-1.832-.147 5.8 5.8 0 0 0-1.788.451 5.88 5.88 0 0 0-2.678 2.473 6 6 0 0 0-.615 1.753 6.3 6.3 0 0 0-.027 1.875 6 6 0 0 0 .566 1.772 6 6 0 0 0 1.087 1.526q.675.65 1.517 1.077a5.5 5.5 0 0 0 1.768.548 5.45 5.45 0 0 0 3.542-.711 5.4 5.4 0 0 0 1.433-1.178q.606-.714.958-1.571a5.9 5.9 0 0 0 .442-1.813 6.5 6.5 0 0 0-.17-1.868 5.9 5.9 0 0 0-.752-1.708 5.4 5.4 0 0 0-1.251-1.384 5.4 5.4 0 0 0-1.598-.915 5.6 5.6 0 0 0-1.822-.353q-.923-.021-2.396.658-1.458.657-1.932 1.177a5.5 5.5 0 0 0-.801 1.147q-.332.609-.506 1.3a6.3 6.3 0 0 0-.166 1.381q-.007.712.135 1.389.166.691.48 1.327.33.63.78 1.172.447.522 1.024.932a5.8 5.8 0 0 0 1.203.685q.659.248 1.34.347a5.8 5.8 0 0 0 1.386.032 5.3 5.3 0 0 0 2.567-.943q.567-.381 4.053-4.47 3.5-4.114 5.282-5.498 1.797-1.407 4.338-2.873 2.536-1.484 5.626-2.249 3.075-.741 5.849-.576 2.774.164 6.494 1.685 3.715 1.502 5.24 2.942 1.51 1.464 2.357 2.661.857 1.236 1.232 1.715.38.497.867.867.489.369 1.048.621.56.251 1.148.373.602.099 1.211.054.607-.045 1.164-.22a4.4 4.4 0 0 0 1.096-.507q.52-.328.95-.778.416-.425.725-.967.309-.541.486-1.132.157-.587.189-1.203a4.8 4.8 0 0 0-.094-1.217 4.7 4.7 0 0 0-.357-1.153z"/></g></g></svg>