<svg width="5893" height="5684" viewBox="0 0 5893 5684" fill="none" xmlns="http://www.w3.org/2000/svg">
<mask id="path-1-inside-1_1073_134" fill="white">
<path d="M5893 5684H0V0H5893V5684ZM109 43.0156C73.6539 43.0156 45.0002 71.6686 45 107.015V5575.98C45 5611.33 73.6538 5639.98 109 5639.98H5784C5819.35 5639.98 5848 5611.33 5848 5575.98V107.015C5848 71.6686 5819.35 43.0156 5784 43.0156H109Z"/>
</mask>
<path d="M5893 5684H0V0H5893V5684ZM109 43.0156C73.6539 43.0156 45.0002 71.6686 45 107.015V5575.98C45 5611.33 73.6538 5639.98 109 5639.98H5784C5819.35 5639.98 5848 5611.33 5848 5575.98V107.015C5848 71.6686 5819.35 43.0156 5784 43.0156H109Z" fill="#222"/>
<path d="M5893 5684V5688H5897V5684H5893ZM0 5684H-4V5688H0V5684ZM0 0V-4H-4V0H0ZM5893 0H5897V-4H5893V0ZM45 107.015L41 107.015V107.015H45ZM5848 107.015H5852V107.015L5848 107.015ZM5893 5684V5680H0V5684V5688H5893V5684ZM0 5684H4V0H0H-4V5684H0ZM0 0V4H5893V0V-4H0V0ZM5893 0H5889V5684H5893H5897V0H5893ZM109 43.0156V39.0156C71.4448 39.0156 41.0002 69.4594 41 107.015L45 107.015L49 107.015C49.0002 73.8778 75.863 47.0156 109 47.0156V43.0156ZM45 107.015H41V5575.98H45H49V107.015H45ZM45 5575.98H41C41 5613.54 71.4446 5643.98 109 5643.98V5639.98V5635.98C75.8629 5635.98 49 5609.12 49 5575.98H45ZM109 5639.98V5643.98H5784V5639.98V5635.98H109V5639.98ZM5784 5639.98V5643.98C5821.56 5643.98 5852 5613.54 5852 5575.98H5848H5844C5844 5609.12 5817.14 5635.98 5784 5635.98V5639.98ZM5848 5575.98H5852V107.015H5848H5844V5575.98H5848ZM5848 107.015L5852 107.015C5852 69.4595 5821.56 39.0156 5784 39.0156V43.0156V47.0156C5817.14 47.0156 5844 73.8778 5844 107.015L5848 107.015ZM5784 43.0156V39.0156H109V43.0156V47.0156H5784V43.0156Z" fill="#666666" mask="url(#path-1-inside-1_1073_134)"/>
<rect x="2" y="2" width="5889" height="5680" stroke="#222" stroke-width="4"/>
</svg>
