<svg xmlns="http://www.w3.org/2000/svg" width="5893" height="5684" fill="none" viewBox="0 0 5893 5684"><mask id="path-1-inside-1_1063_2" fill="#fff"><path d="M5893 5684H0V0h5893zM109 43.016c-35.346 0-64 28.653-64 63.999V5575.98c0 35.35 28.654 64 64 64h5675c35.35 0 64-28.65 64-64V107.015c0-35.346-28.65-64-64-64z"/></mask><path fill="#fff" d="M5893 5684H0V0h5893zM109 43.016c-35.346 0-64 28.653-64 63.999V5575.98c0 35.35 28.654 64 64 64h5675c35.35 0 64-28.65 64-64V107.015c0-35.346-28.65-64-64-64z"/><path fill="#bbb" d="M5893 5684v4h4v-4zM0 5684h-4v4h4zM0 0v-4h-4v4zm5893 0h4v-4h-4zM45 107.015h-4zm5803 0h4zM5893 5684v-4H0v8h5893zM0 5684h4V0h-8v5684zM0 0v4h5893v-8H0zm5893 0h-4v5684h8V0zM109 43.016v-4c-37.555 0-68 30.443-68 67.999h8c0-33.137 26.863-60 60-60zm-64 63.999h-4V5575.98h8V107.015zm0 5468.965h-4c0 37.56 30.445 68 68 68v-8c-33.137 0-60-26.86-60-60zm64 64v4h5675v-8H109zm5675 0v4c37.56 0 68-30.44 68-68h-8c0 33.14-26.86 60-60 60zm64-64h4V107.015h-8V5575.98zm0-5468.965h4c0-37.555-30.44-68-68-68v8c33.14 0 60 26.863 60 60zm-64-64v-4H109v8h5675z" mask="url(#path-1-inside-1_1063_2)"/><path stroke="#fff" stroke-width="4" d="M2 2h5889v5680H2z"/></svg>