<svg width="179" height="50" viewBox="0 0 179 50" fill="none" xmlns="http://www.w3.org/2000/svg">
<path d="M12.7253 2.50163C70.6553 -0.44837 132.235 -1.19837 166.075 2.50163C176.015 3.24163 174.235 4.41163 177.355 13.7816C177.545 21.3116 177.535 26.6616 177.355 36.3416C179.535 43.1416 173.545 45.2016 166.075 47.6216C130.445 51.5416 93.9953 49.4816 12.7253 47.6216C4.22531 49.4216 5.02531 43.4516 1.44531 36.3416C3.33531 29.0416 1.80531 17.9216 1.44531 13.7816C2.48531 9.85163 2.99531 -0.78837 12.7253 2.50163Z" fill="black"/>
<path d="M12.7252 2.50197C62.3652 3.55197 112.205 2.10197 166.075 2.50197M12.7252 2.50197C57.3052 2.93197 101.875 2.80197 166.075 2.50197M12.7252 2.50197C6.30523 3.96197 3.06523 5.19197 1.44523 13.782M12.7252 2.50197C5.17523 0.721974 -0.694771 5.60197 1.44523 13.782M166.075 2.50197C173.705 2.40197 177.705 6.52197 177.355 13.782M166.075 2.50197C171.735 2.65197 175.205 6.97197 177.355 13.782M177.355 13.782C176.145 22.242 176.195 32.592 177.355 36.342M177.355 13.782C178.025 22.362 176.605 28.632 177.355 36.342M177.355 36.342C175.395 43.262 173.385 46.352 166.075 47.622M177.355 36.342C178.285 42.602 173.765 45.512 166.075 47.622M166.075 47.622C127.165 44.882 90.9752 44.652 12.7252 47.622M166.075 47.622C132.965 45.922 98.8852 47.402 12.7252 47.622M12.7252 47.622C6.65523 48.932 0.145229 42.802 1.44523 36.342M12.7252 47.622C7.11523 49.762 3.55523 45.192 1.44523 36.342M1.44523 36.342C2.28523 32.562 1.68523 24.512 1.44523 13.782M1.44523 36.342C1.90523 30.232 1.60523 25.552 1.44523 13.782" stroke="black" stroke-width="2" stroke-linecap="round"/>
</svg>
