<svg width="365" height="363" viewBox="0 0 365 363" fill="none" xmlns="http://www.w3.org/2000/svg">
<g id="corner-top-left">
<g id="Union">
<mask id="path-1-inside-1_1077_142" fill="white">
<path d="M3.50275 301.975H3.70099V362.551C3.70099 332.301 25.5228 307.148 54.283 301.975H239.749C275.095 301.975 303.749 273.321 303.749 237.975V57.4395C306.805 26.303 333.061 1.97469 365.001 1.97461H3.50275V301.975Z"/>
</mask>
<path d="M3.50275 301.975H3.70099V362.551C3.70099 332.301 25.5228 307.148 54.283 301.975H239.749C275.095 301.975 303.749 273.321 303.749 237.975V57.4395C306.805 26.303 333.061 1.97469 365.001 1.97461H3.50275V301.975Z" fill="var(--primary-bg)"/>
<path d="M3.50275 301.975V305.975H-0.497253V301.975H3.50275ZM3.70099 301.975V297.975H7.70099V301.975H3.70099ZM54.283 301.975L53.5749 298.038L53.9261 297.975H54.283V301.975ZM239.749 301.975V305.975V305.975V301.975ZM303.749 237.975H307.749V237.975H303.749ZM303.749 57.4395H299.749V57.2436L299.768 57.0487L303.749 57.4395ZM3.50275 1.97461H-0.497253V-2.02539H3.50275V1.97461ZM3.50275 301.975V297.975H3.70099V301.975V305.975H3.50275V301.975ZM3.70099 301.975H7.70099V362.551H3.70099H-0.299011V301.975H3.70099ZM3.70099 362.551H-0.299011C-0.299011 330.331 22.9431 303.548 53.5749 298.038L54.283 301.975L54.9912 305.911C28.1026 310.748 7.70099 334.271 7.70099 362.551H3.70099ZM54.283 301.975V297.975H239.749V301.975V305.975H54.283V301.975ZM239.749 301.975V297.975C272.886 297.975 299.749 271.112 299.749 237.975H303.749H307.749C307.749 275.53 277.304 305.975 239.749 305.975V301.975ZM303.749 237.975H299.749V57.4395H303.749H307.749V237.975H303.749ZM303.749 57.4395L299.768 57.0487C303.023 23.8846 330.983 -2.0253 365.001 -2.02539L365.001 1.97461L365.001 5.97461C335.139 5.97469 310.587 28.7213 307.73 57.8302L303.749 57.4395ZM365.001 1.97461V5.97461H3.50275V1.97461V-2.02539H365.001V1.97461ZM3.50275 1.97461H7.50275V301.975H3.50275H-0.497253V1.97461H3.50275Z" fill="var(--border-line)" mask="url(#path-1-inside-1_1077_142)"/>
</g>
<path id="corner-convex1" d="M299.446 0V61.5508C299.446 27.5574 327.004 0 360.997 0L299.446 0Z" fill="var(--primary-bg)"/>
<path id="corner-convex2" d="M3.45001 292.047V356.047C3.45001 320.701 32.104 292.047 67.45 292.047H3.45001Z" fill="var(--primary-bg)"/>
<rect id="Rectangle 42" width="313.757" height="9" transform="matrix(-1 0 0 1 317.259 0)" fill="var(--primary-bg)"/>
<line id="Line 6" y1="-2" x2="317.26" y2="-2" transform="matrix(-1 0 0 1 320.763 4)" stroke="var(--primary-bg)" stroke-width="4"/>
<rect id="Rectangle 43" width="318" height="10.5086" transform="matrix(2.14129e-08 -1 -1 -8.92308e-08 10.5086 318)" fill="var(--primary-bg)"/>
<line id="Line 5" y1="-7.5" x2="317" y2="-7.5" transform="matrix(-2.18736e-08 -1 -1 8.73512e-08 3.5047 317)" stroke="var(--primary-bg)" stroke-width="15"/>
</g>
</svg>
