<svg xmlns="http://www.w3.org/2000/svg" width="671" height="451" fill="none" viewBox="0 0 671 451"><g id="corner2"><g id="Union"><mask id="path-1-inside-1_1067_36" fill="#fff"><path d="M663.41 301.975H663V365c0-31.531-22.803-57.736-52.817-63.025H127.41c-35.346 0-64-28.654-64-64V57.259C59.16 26.036 32.39 1.975 0 1.975h663.41z"/></mask><path fill="var(--primary-bg)" d="M663.41 301.975H663V365c0-31.531-22.803-57.736-52.817-63.025H127.41c-35.346 0-64-28.654-64-64V57.259C59.16 26.036 32.39 1.975 0 1.975h663.41z"/><path fill="var(--border-line)" d="M663.41 301.975v4h4v-4zm-.41 0v-4h-4v4zm-52.817 0 .694-3.94-.345-.06h-.349zm-482.773 0v4zm-64-64h-4zm0-180.716h4v-.271l-.036-.269zm600-55.284h4v-4h-4zm0 300v-4H663v8h.41zm-.41 0h-4V365h8v-63.025zM663 365h4c0-33.506-24.23-61.344-56.123-66.965l-.694 3.94-.695 3.939C637.624 310.872 659 335.443 659 365zm-52.817-63.025v-4H127.41v8h482.773zm-482.773 0v-4c-33.137 0-60-26.863-60-60h-8c0 37.555 30.445 68 68 68zm-64-64h4V57.259h-8v180.716zm0-180.716 3.964-.54C62.856 23.541 34.418-2.025 0-2.025v8c30.362 0 55.461 22.556 59.447 51.823zM0 1.975v4h663.41v-8H0zm663.41 0h-4v300h8v-300z" mask="url(#path-1-inside-1_1067_36)"/></g><path id="corner-convex1" fill="var(--primary-bg)" d="M68 0v64C68 28.654 39.346 0 4 0z"/><path id="corner-convex2" fill="var(--primary-bg)" d="M663.509 292.047v158h-.001v-94c0-35.346-28.654-64-64-64zm-163 0v158h-.001z"/><path id="Rectangle 42" fill="var(--primary-bg)" d="M36.406 0h627v9h-627z"/><path id="Line 6" stroke="var(--primary-bg)" stroke-width="4" d="M29.406 2h634"/><path id="Rectangle 43" fill="var(--primary-bg)" d="M649.406 318h318v21h-318z" transform="rotate(-90 649.406 318)"/><path id="Line 5" stroke="var(--primary-bg)" stroke-width="15" d="M655.906 317V0"/></g></svg>