<svg
    fill="var(--primary-text)"
    width="23px"
    height="100%"
    version="1.1"
    baseProfile="tiny"
    id="Layer_1"
    xmlns="http://www.w3.org/2000/svg"
    xmlns:xlink="http://www.w3.org/1999/xlink"
    viewBox="0 0 42 42"
    xml:space="preserve"
>
    <g id="SVGRepo_bgCarrier" stroke-width="0"></g>
    <g
        id="SVGRepo_tracerCarrier"
        stroke-linecap="round"
        stroke-linejoin="round"></g>
    <g id="SVGRepo_iconCarrier">
        <path
            d="M6.5,25.5v4c0.016,2.812,1.344,2.375,2.328,1.531L14.5,25.91v2.59c0,2.43,0.56,3,3,3h9c0,0,5.209,6.125,5.25,6.084 c0.75,0.916,2.781,0.604,2.75-1.084v-5h3c2.45,0,3-0.609,3-3v-15c0-2.4-0.59-3-3-3h-10v-2c0-2.47-0.46-3-3-3h-21c-2.36,0-3,0.51-3,3 v13c0,2.439,0.55,4,3,4H6.5z M31.5,28.5v4.721l-4-4.721h-9c-0.75,0-1-0.27-1-1v-13c0-0.67,0.31-1,1-1h18c0.689,0,1,0.37,1,0.94V27.5 c0,0.721-0.359,1-1,1H31.5z"
        >
        </path>
    </g>
</svg>