<svg xmlns="http://www.w3.org/2000/svg" width="800" height="800" fill="none" viewBox="0 0 24 24"><g id="SVGRepo_iconCarrier"><g id="style=fill" clip-path="url(#clip0_1_188)"><g id="home-smile"><path id="Subtract" fill="var(--primary-text)" fill-rule="evenodd" d="M14.469 2.163a3.75 3.75 0 0 0-4.938 0L2.873 7.988a4.75 4.75 0 0 0-1.623 3.575V20A3.75 3.75 0 0 0 5 23.75h14A3.75 3.75 0 0 0 22.75 20v-8.437a4.75 4.75 0 0 0-1.623-3.575zM8.162 14.825a.75.75 0 0 0-1.355.644 5.75 5.75 0 0 0 10.388-.004.75.75 0 1 0-1.355-.643 4.25 4.25 0 0 1-7.678.003" clip-rule="evenodd"/></g></g><defs><clipPath id="clip0_1_188"><path fill="#fff" d="M0 24V0h24v24z"/></clipPath></defs></g></svg>