<?xml version="1.0" standalone="no"?>
<!DOCTYPE svg PUBLIC "-//W3C//DTD SVG 1.1//EN" "http://www.w3.org/Graphics/SVG/1.1/DTD/svg11.dtd">
<svg version="1.1" xmlns="http://www.w3.org/2000/svg" viewBox="0 0 1488.4142555259532 1063.2622213158138" width="1488.4142555259532" height="1063.2622213158138"><!-- svg-source:excalidraw --><metadata></metadata><defs><style class="style-fonts">
      </style></defs><g stroke-linecap="round" transform="translate(10 10) rotate(0 734.2071277629766 521.6311106579069)"><path d="M32 0 C504.25 2.79, 975.48 3.56, 1436.41 0 M32 0 C496 4.42, 960.57 4.45, 1436.41 0 M1436.41 0 C1455.89 -0.05, 1468.49 11.77, 1468.41 32 M1436.41 0 C1457.92 1.01, 1467.25 11.36, 1468.41 32 M1468.41 32 C1464.35 256.91, 1464.09 480.62, 1468.41 1011.26 M1468.41 32 C1469.55 370.25, 1470.06 708.79, 1468.41 1011.26 M1468.41 1011.26 C1468.25 1034.57, 1459.04 1041.71, 1436.41 1043.26 M1468.41 1011.26 C1468.76 1032.64, 1458.62 1043.36, 1436.41 1043.26 M1436.41 1043.26 C1129.82 1042.98, 822.77 1042.89, 32 1043.26 M1436.41 1043.26 C888.4 1045.28, 341.29 1045.02, 32 1043.26 M32 1043.26 C10.58 1043.03, -0.24 1034.33, 0 1011.26 M32 1043.26 C10.09 1041.91, 0.52 1032.88, 0 1011.26 M0 1011.26 C1.43 809.15, 2.27 607.87, 0 32 M0 1011.26 C0.18 770.77, 0.45 529.95, 0 32 M0 32 C1.9 12.05, 10.82 -1.3, 32 0 M0 32 C-1.22 9.81, 9.69 0.05, 32 0" stroke="currentColor" stroke-width="2" fill="none"></path></g></svg>